<svg version="1" xmlns="http://www.w3.org/2000/svg" width="346.667" height="346.667" viewBox="0 0 260.000000 260.000000"><path d="M71 92.6c-18.3 4.8-29.7 16.5-30.8 31.5-.9 12.4 4.5 21.5 15.8 26.8 4.7 2.2 6.9 2.6 15 2.6 10.8 0 16.9-2.1 22.8-7.8 5.8-5.5 9.4-14.5 6.7-16.7-2.3-1.9-4.3-.5-5.4 3.7-2.7 9.7-8.6 15.8-15.2 15.8-5.4 0-7.9-3-7.9-9.1 0-16.8 24.1-33.1 52-35 8.8-.7 20.7.7 26.2 2.9 2.8 1.1 2.3 1.2-5.3 1.2-7.3 0-9.1.4-13.8 2.9-7.5 3.9-13.9 10.7-26 27.3-16.7 23.3-26.3 31.2-39.7 32.9-3.6.4-5.4 1.1-5.4 2 0 1.2 5.8 1.4 34.8 1.4h34.7l6.7-14 6.6-14h11.1l-1.6 3.7c-1.2 3-9 19.6-11.1 23.5-.2.5 10.9.8 24.6.8 21.3 0 25.1-.2 25.6-1.5.4-1.2-.3-1.5-3.3-1.5-5 0-7.1-.8-7.1-2.7 0-1.4 15.4-36 22.8-51 3.3-6.9 10.3-14.9 17.2-19.6 1.8-1.3 2.1-2 1.3-2.8-.9-.9-2-.6-4.6.9-1.8 1.2-9.6 4.2-17.3 6.8-7.6 2.5-16.5 6-19.7 7.7-7.3 3.8-14 11.3-20.2 22.3l-4.7 8.4h-4.9c-2.7 0-4.9-.2-4.9-.5 0-1.2 4.5-9.4 9.1-16.6 5.7-8.9 13.8-16.9 20.3-20.1 4.3-2.1 5.7-4 3.8-5.2-.5-.3-3.1.2-5.8 1-6.9 2.2-17.6 1.3-37.4-3-9-2-20.8-4.3-26.2-5.1-12.4-1.9-31.5-1.8-38.8.1z"/></svg>